Coordinates
version=1
nRows=16
nColumns=42
inDegrees=yes

Units are S.I. units (second, meters, Newtons, ...)
If the header above contains a line with 'inDegrees', this indicates whether rotational values are in degrees (yes) or radians (no).

endheader
time	pelvis_tilt	pelvis_list	pelvis_rotation	pelvis_tx	pelvis_ty	pelvis_tz	hip_flexion_r	hip_adduction_r	hip_rotation_r	knee_angle_r	knee_adduction_r	knee_angle_r_beta	ankle_angle_r	subtalar_angle_r	mtp_angle_r	hip_flexion_l	hip_adduction_l	hip_rotation_l	knee_angle_l	knee_adduction_l	knee_angle_l_beta	ankle_angle_l	subtalar_angle_l	mtp_angle_l	lumbar_extension	lumbar_bending	lumbar_rotation	arm_flex_r	arm_add_r	arm_rot_r	elbow_flex_r	pro_sup_r	wrist_flex_r	wrist_dev_r	arm_flex_l	arm_add_l	arm_rot_l	elbow_flex_l	pro_sup_l	wrist_flex_l	wrist_dev_l
      0.90000000	     14.30948847	     -2.30763695	     -3.27566898	     -0.08096710	      0.97251857	     -0.10338547	    -27.85520606	      6.77144904	     -5.30028360	      3.14133595	     -0.66001839	      0.05482666	     13.46419393	      9.18385925	     -7.77652625	     10.75879689	     -3.13628053	     -2.82261975	     16.22331542	      2.41435513	      0.28315027	     -0.78203860	      2.61911006	     -7.77652625	    -34.51736393	      3.99819834	     12.11155938	      2.26671949	    -26.93478814	     -0.72547022	     76.43061562	     90.00000001	      0.00000000	      0.00000000	     -8.88757961	    -17.07013362	      2.69292599	     54.53414381	     90.00000001	      0.00000000	      0.00000000
      0.91000000	     14.04998829	     -2.76634914	     -3.83970700	     -0.06753147	      0.96939287	     -0.10254190	    -28.30283874	      7.00044932	     -4.95094446	      3.61342216	     -0.72375328	      0.06306611	     14.11693245	      9.23879140	     -7.76485877	     11.17276272	     -3.53334155	     -4.58978608	     13.73817661	      2.13385826	      0.23977642	     -1.00662403	      4.58976961	     -7.76485877	    -34.33745329	      4.20808492	     12.59590914	      2.67130283	    -27.23755433	     -0.21582633	     76.43138897	     90.00000001	      0.00000000	      0.00000000	     -9.55511555	    -16.75843558	      2.31617921	     54.62045842	     90.00000001	      0.00000000	      0.00000000
      0.92000000	     13.76569289	     -3.19487583	     -4.42716549	     -0.05399738	      0.96629407	     -0.10178253	    -28.66700340	      7.15393965	     -4.76746611	      4.23401141	     -0.80648669	      0.07389744	     14.81889829	      9.58521349	     -7.75285294	     11.60530257	     -3.91540054	     -6.28332143	     11.67541700	      2.00165007	      0.20377447	     -1.05932908	      6.19833836	     -7.75285294	    -34.13405302	      4.40178830	     13.09633555	      3.07608155	    -27.50485650	      0.24020098	     76.36542380	     90.00000001	      0.00000000	      0.00000000	    -10.18615931	    -16.44620828	      1.99939286	     54.67725255	     90.00000001	      0.00000000	      0.00000000
      0.93000000	     13.46897105	     -3.58488424	     -5.01542581	     -0.04029084	      0.96322443	     -0.10101873	    -28.91226086	      7.24354543	     -5.05739286	      5.08670074	     -0.98449778	      0.08877968	     15.76040882	     10.86154335	     -7.72889371	     12.09668456	     -4.25877207	     -8.14396536	     10.20590909	      1.88114838	      0.17812672	     -0.68215363	      8.05466476	     -7.72889371	    -33.90484860	      4.55291545	     13.56180785	      3.43744222	    -27.71196287	      0.64734534	     76.24969214	     90.00000001	      0.00000000	      0.00000000	    -10.78675430	    -16.17340118	      1.75399392	     54.71607829	     90.00000001	      0.00000000	      0.00000000
      0.94000000	     13.06859097	     -3.97810216	     -5.59328929	     -0.02656907	      0.96024584	     -0.10027503	    -29.09836419	      7.31568152	     -4.89234797	      5.84853358	     -1.09757969	      0.10207617	     16.24402717	     11.11335949	     -7.72502251	     12.57362813	     -4.60590770	     -9.19079347	      8.98150803	      1.95193880	      0.15675689	     -0.51881210	      8.22870408	     -7.72502251	    -33.58866257	      4.71593080	     14.07735306	      3.74812493	    -27.85053481	      0.90309353	     75.98831837	     90.00000001	      0.00000000	      0.00000000	    -11.26139443	    -15.93315867	      1.65040489	     54.66708138	     90.00000001	      0.00000000	      0.00000000
      0.95000000	     12.85514200	     -4.04398092	     -6.24408822	     -0.01244841	      0.95761206	     -0.09972972	    -29.25085646	      6.87132564	     -5.79925838	      7.08250288	     -1.19832210	      0.12361299	     17.31755877	     13.28561548	     -7.71117084	     12.89520825	     -4.52170085	    -10.88645973	      8.35775064	      1.76673878	      0.14587027	     -0.22101596	      9.22982393	     -7.71117084	    -33.39389181	      4.52002770	     14.35589586	      4.10975244	    -27.96762536	      1.35716870	     75.73702409	     90.00000001	      0.00000000	      0.00000000	    -11.78445291	    -15.60775309	      1.23433944	     54.62541081	     90.00000001	      0.00000000	      0.00000000
      0.96000000	     12.39356299	     -4.33492729	     -6.65689954	      0.00157575	      0.95488840	     -0.09927568	    -29.34077314	      6.80672777	     -5.73241506	      7.91668627	     -1.21315991	      0.13817224	     17.47484975	     13.56723101	     -7.70912710	     13.48450293	     -4.67373530	    -11.48058462	      8.17557459	      1.70188348	      0.14269069	      0.09794109	      9.00283582	     -7.70912710	    -32.98126468	      4.67368135	     14.65817980	      4.30782931	    -27.93959455	      1.40628633	     75.46927627	     90.00000001	      0.00000000	      0.00000000	    -12.11930013	    -15.44189194	      1.31171473	     54.46459438	     90.00000001	      0.00000000	      0.00000000
      0.97000000	     12.27489242	     -4.21363123	     -7.38571443	      0.01615903	      0.95271280	     -0.09854744	    -29.39580396	      6.05603351	     -7.08724284	      9.49775391	     -1.51721305	      0.16576708	     18.62900437	     16.96015647	     -7.69304646	     13.73850831	     -4.45181949	    -13.11559039	      8.69903407	      1.51741743	      0.15182679	      0.64707609	      9.78922832	     -7.69304646	    -32.81492288	      4.22275778	     14.93909878	      4.50395201	    -27.92424000	      1.69957154	     75.12503619	     90.00000001	      0.00000000	      0.00000000	    -12.47374887	    -15.28217767	      1.20058431	     54.29801799	     90.00000001	      0.00000000	      0.00000000
      0.98000000	     11.94065875	     -4.30504998	     -7.83994253	      0.03056733	      0.95063570	     -0.09809265	    -29.47080913	      5.67000979	     -6.90844267	     10.60574918	     -1.50659325	      0.18510524	     18.51056756	     17.26917466	     -7.69076538	     14.19183785	     -4.38624760	    -13.36334749	      9.45982670	      1.35240143	      0.16510512	      0.71794332	      9.29847998	     -7.69076538	    -32.48574665	      4.13079731	     15.14407749	      4.64068598	    -27.80218451	      1.70596117	     74.75682157	     90.00000001	      0.00000000	      0.00000000	    -12.65392996	    -15.15357900	      1.28406384	     54.00631699	     90.00000001	      0.00000000	      0.00000000
      0.99000000	     11.70155425	     -4.18182643	     -8.40278611	      0.04540054	      0.94884752	     -0.09743340	    -29.49547759	      5.01556893	     -7.12279995	     11.95108758	     -1.67765022	      0.20858583	     18.55758690	     18.36242032	     -7.68611861	     14.62698964	     -4.17260353	    -13.99278150	     10.83876056	      1.17168796	      0.18917206	      0.64291458	      8.47239328	     -7.68611861	    -32.16779814	      3.74842297	     15.31066977	      4.66601227	    -27.62272185	      1.77962515	     74.40605881	     90.00000001	      0.00000000	      0.00000000	    -12.77857969	    -15.09231904	      1.36589002	     53.65396256	     90.00000001	      0.00000000	      0.00000000
      1.00000000	     11.47535280	     -4.13565613	     -8.76250134	      0.06022010	      0.94743242	     -0.09703026	    -29.54094031	      4.50572720	     -6.82576134	     13.27146123	     -1.68086496	      0.23163069	     18.06109885	     18.73739922	     -7.68450462	     14.89817683	     -3.92433387	    -13.53653315	     12.05524598	      0.93364935	      0.21040373	      0.32105169	      8.20847149	     -7.68450462	    -31.89775796	      3.52041554	     15.33425646	      4.65393980	    -27.42869034	      1.73298420	     74.11320277	     90.00000001	      0.00000000	      0.00000000	    -12.81274418	    -15.04046730	      1.44940482	     53.38637556	     90.00000001	      0.00000000	      0.00000000
      1.01000000	     11.40372533	     -3.89798501	     -9.14903906	      0.07561982	      0.94637597	     -0.09669387	    -29.53215495	      3.71387083	     -7.33804342	     14.95176094	     -1.80089251	      0.26095746	     17.29788044	     19.45078562	     -7.68126216	     15.27088254	     -3.53471106	    -14.01656898	     14.13559841	      0.56756817	      0.24671273	     -0.26049259	      6.95312106	     -7.68126216	    -31.65080885	      3.10271221	     15.24906669	      4.57759238	    -27.12562874	      1.59232191	     73.69852951	     90.00000001	      0.00000000	      0.00000000	    -12.80191829	    -15.06170911	      1.69010490	     52.85820609	     90.00000001	      0.00000000	      0.00000000
      1.02000000	     11.53320803	     -3.46535856	     -9.41827629	      0.09114454	      0.94583298	     -0.09651643	    -29.51218020	      2.75061138	     -8.39388964	     16.94482348	     -2.15728095	      0.29574296	     16.62416817	     21.69072627	     -7.66953322	     15.20960932	     -2.79202256	    -13.47814067	     15.76493994	      0.28844526	      0.27515011	     -1.22705065	      5.39468749	     -7.66953322	    -31.58255896	      2.47942909	     15.04122723	      4.35274116	    -26.75816128	      1.30791926	     73.48530641	     90.00000001	      0.00000000	      0.00000000	    -12.68842228	    -15.23887399	      2.13940078	     52.51953525	     90.00000001	      0.00000000	      0.00000000
      1.03000000	     11.61988399	     -3.25681810	     -9.62951578	      0.10645936	      0.94578966	     -0.09628262	    -29.51585141	      2.10178656	     -8.03607329	     18.81739360	     -2.17290656	      0.32842547	     15.20949142	     21.67501073	     -7.66852077	     15.17500304	     -2.35457214	    -12.82939441	     17.51017884	      0.06338855	      0.30561027	     -1.75752357	      5.02407474	     -7.66852077	    -31.56437906	      2.10073919	     14.80797581	      4.25770294	    -26.44936480	      1.20393694	     73.17966453	     90.00000001	      0.00000000	      0.00000000	    -12.48054720	    -15.24738134	      2.24806488	     52.18183028	     90.00000001	      0.00000000	      0.00000000
      1.04000000	     11.84325733	     -2.87594447	     -9.74873369	      0.12228636	      0.94610136	     -0.09606039	    -29.45606924	      1.35432551	     -8.27493178	     21.00432834	     -2.40968772	      0.36659469	     12.91024809	     20.97688876	     -7.66611709	     15.11198555	     -1.72037520	    -12.71538372	     19.55847854	     -0.29313757	      0.34135985	     -2.32068494	      3.70347231	     -7.66611709	    -31.55417154	      1.56458222	     14.44429045	      3.94879793	    -26.04852857	      0.91260426	     72.90181904	     90.00000001	      0.00000000	      0.00000000	    -12.23225168	    -15.46409561	      2.56787777	     51.71615057	     90.00000001	      0.00000000	      0.00000000
      1.05000000	     12.21005396	     -2.59381482	     -9.82722989	      0.13787009	      0.94709991	     -0.09588085	    -29.39621009	      0.67061693	     -8.05756904	     23.45089014	     -2.42675144	      0.40929525	     10.76937593	     20.37748050	     -7.66468245	     14.66435665	     -1.21216713	    -11.96013244	     21.23979643	     -0.29543672	      0.37070438	     -2.55603870	      2.95825103	     -7.66468245	    -31.76740322	      1.11231197	     14.05846207	      3.73109864	    -25.68956401	      0.66366258	     72.65022257	     90.00000001	      0.00000000	      0.00000000	    -11.88546973	    -15.61981812	      2.81604165	     51.37195345	     90.00000001	      0.00000000	      0.00000000
